<svg width="96" height="96" viewBox="0 0 96 96" fill="none" xmlns="http://www.w3.org/2000/svg">
  <rect x="10" y="16" width="76" height="64" rx="18" fill="#E8F8F4"/>
  <rect x="18" y="24" width="60" height="48" rx="14" fill="#FFFFFF"/>
  <path d="M48 30L52.2 38.5L61.6 39.9L54.8 46.5L56.4 55.8L48 51.4L39.6 55.8L41.2 46.5L34.4 39.9L43.8 38.5L48 30Z" fill="#FFB703"/>
  <path d="M26 62H70" stroke="#2A9D8F" stroke-width="5" stroke-linecap="round"/>
  <path d="M28 16H68" stroke="#2A9D8F" stroke-width="4" stroke-linecap="round"/>
  <circle cx="24" cy="76" r="8" fill="#8BCF7D"/>
  <circle cx="48" cy="80" r="8" fill="#2A9D8F"/>
  <circle cx="72" cy="76" r="8" fill="#FFB703"/>
  <path d="M22 76L24 78L28 73" stroke="#FFFFFF" stroke-width="3" stroke-linecap="round" stroke-linejoin="round"/>
  <path d="M46 80L48 82L52 77" stroke="#FFFFFF" stroke-width="3" stroke-linecap="round" stroke-linejoin="round"/>
  <path d="M70 76L72 78L76 73" stroke="#FFFFFF" stroke-width="3" stroke-linecap="round" stroke-linejoin="round"/>
</svg>
